<svg width="725" height="93" viewBox="0 0 725 93" fill="none" xmlns="http://www.w3.org/2000/svg">
<path d="M46.3438 62.0312V73H10.0156V62.0312H46.3438ZM14.6094 4.75V73H0.546875V4.75H14.6094ZM41.6094 32.5469V43.2344H10.0156V32.5469H41.6094ZM46.2969 4.75V15.7656H10.0156V4.75H46.2969ZM81.0781 61.5625V38.9688C81.0781 37.3438 80.8125 35.9531 80.2812 34.7969C79.75 33.6094 78.9219 32.6875 77.7969 32.0312C76.7031 31.375 75.2812 31.0469 73.5312 31.0469C72.0312 31.0469 70.7344 31.3125 69.6406 31.8438C68.5469 32.3438 67.7031 33.0781 67.1094 34.0469C66.5156 34.9844 66.2188 36.0938 66.2188 37.375H52.7188C52.7188 35.2188 53.2188 33.1719 54.2188 31.2344C55.2188 29.2969 56.6719 27.5938 58.5781 26.125C60.4844 24.625 62.75 23.4531 65.375 22.6094C68.0312 21.7656 71 21.3438 74.2812 21.3438C78.2188 21.3438 81.7188 22 84.7812 23.3125C87.8438 24.625 90.25 26.5938 92 29.2188C93.7812 31.8438 94.6719 35.125 94.6719 39.0625V60.7656C94.6719 63.5469 94.8438 65.8281 95.1875 67.6094C95.5312 69.3594 96.0312 70.8906 96.6875 72.2031V73H83.0469C82.3906 71.625 81.8906 69.9062 81.5469 67.8438C81.2344 65.75 81.0781 63.6562 81.0781 61.5625ZM82.8594 42.1094L82.9531 49.75H75.4062C73.625 49.75 72.0781 49.9531 70.7656 50.3594C69.4531 50.7656 68.375 51.3438 67.5312 52.0938C66.6875 52.8125 66.0625 53.6562 65.6562 54.625C65.2812 55.5938 65.0938 56.6562 65.0938 57.8125C65.0938 58.9688 65.3594 60.0156 65.8906 60.9531C66.4219 61.8594 67.1875 62.5781 68.1875 63.1094C69.1875 63.6094 70.3594 63.8594 71.7031 63.8594C73.7344 63.8594 75.5 63.4531 77 62.6406C78.5 61.8281 79.6562 60.8281 80.4688 59.6406C81.3125 58.4531 81.75 57.3281 81.7812 56.2656L85.3438 61.9844C84.8438 63.2656 84.1562 64.5938 83.2812 65.9688C82.4375 67.3438 81.3594 68.6406 80.0469 69.8594C78.7344 71.0469 77.1562 72.0312 75.3125 72.8125C73.4688 73.5625 71.2812 73.9375 68.75 73.9375C65.5312 73.9375 62.6094 73.2969 59.9844 72.0156C57.3906 70.7031 55.3281 68.9062 53.7969 66.625C52.2969 64.3125 51.5469 61.6875 51.5469 58.75C51.5469 56.0938 52.0469 53.7344 53.0469 51.6719C54.0469 49.6094 55.5156 47.875 57.4531 46.4688C59.4219 45.0312 61.875 43.9531 64.8125 43.2344C67.75 42.4844 71.1562 42.1094 75.0312 42.1094H82.8594ZM118.578 33.3438V73H105.078V22.2812H117.781L118.578 33.3438ZM133.859 21.9531L133.625 34.4688C132.969 34.375 132.172 34.2969 131.234 34.2344C130.328 34.1406 129.5 34.0938 128.75 34.0938C126.844 34.0938 125.188 34.3438 123.781 34.8438C122.406 35.3125 121.25 36.0156 120.312 36.9531C119.406 37.8906 118.719 39.0312 118.25 40.375C117.812 41.7188 117.562 43.25 117.5 44.9688L114.781 44.125C114.781 40.8438 115.109 37.8281 115.766 35.0781C116.422 32.2969 117.375 29.875 118.625 27.8125C119.906 25.75 121.469 24.1562 123.312 23.0312C125.156 21.9062 127.266 21.3438 129.641 21.3438C130.391 21.3438 131.156 21.4062 131.938 21.5312C132.719 21.625 133.359 21.7656 133.859 21.9531ZM167.422 22.2812V31.8438H137.891V22.2812H167.422ZM145.203 9.76562H158.703V57.7188C158.703 59.1875 158.891 60.3125 159.266 61.0938C159.672 61.875 160.266 62.4219 161.047 62.7344C161.828 63.0156 162.812 63.1562 164 63.1562C164.844 63.1562 165.594 63.125 166.25 63.0625C166.938 62.9688 167.516 62.875 167.984 62.7812L168.031 72.7188C166.875 73.0938 165.625 73.3906 164.281 73.6094C162.938 73.8281 161.453 73.9375 159.828 73.9375C156.859 73.9375 154.266 73.4531 152.047 72.4844C149.859 71.4844 148.172 69.8906 146.984 67.7031C145.797 65.5156 145.203 62.6406 145.203 59.0781V9.76562ZM188.281 1V73H174.781V1H188.281ZM186.359 45.8594H182.656C182.688 42.3281 183.156 39.0781 184.062 36.1094C184.969 33.1094 186.266 30.5156 187.953 28.3281C189.641 26.1094 191.656 24.3906 194 23.1719C196.375 21.9531 199 21.3438 201.875 21.3438C204.375 21.3438 206.641 21.7031 208.672 22.4219C210.734 23.1094 212.5 24.2344 213.969 25.7969C215.469 27.3281 216.625 29.3438 217.438 31.8438C218.25 34.3438 218.656 37.375 218.656 40.9375V73H205.062V40.8438C205.062 38.5938 204.734 36.8281 204.078 35.5469C203.453 34.2344 202.531 33.3125 201.312 32.7812C200.125 32.2188 198.656 31.9375 196.906 31.9375C194.969 31.9375 193.312 32.2969 191.938 33.0156C190.594 33.7344 189.516 34.7344 188.703 36.0156C187.891 37.2656 187.297 38.7344 186.922 40.4219C186.547 42.1094 186.359 43.9219 186.359 45.8594ZM258.875 92.5V32.6406L260.609 22.2812H272.469V92.5H258.875ZM226.812 48.1562V47.1719C226.812 43.2969 227.234 39.7812 228.078 36.625C228.953 33.4375 230.234 30.7188 231.922 28.4688C233.609 26.1875 235.672 24.4375 238.109 23.2188C240.578 21.9687 243.422 21.3438 246.641 21.3438C249.734 21.3438 252.406 21.9687 254.656 23.2188C256.906 24.4688 258.797 26.2344 260.328 28.5156C261.891 30.7969 263.141 33.4844 264.078 36.5781C265.016 39.6719 265.734 43.0625 266.234 46.75V48.9062C265.766 52.4375 265.047 55.7188 264.078 58.75C263.141 61.7812 261.891 64.4375 260.328 66.7188C258.797 69 256.891 70.7812 254.609 72.0625C252.359 73.3125 249.672 73.9375 246.547 73.9375C243.391 73.9375 240.578 73.2969 238.109 72.0156C235.672 70.7031 233.609 68.8906 231.922 66.5781C230.234 64.2656 228.953 61.5469 228.078 58.4219C227.234 55.2656 226.812 51.8438 226.812 48.1562ZM240.312 47.1719V48.1562C240.312 50.25 240.484 52.2188 240.828 54.0625C241.172 55.875 241.719 57.4844 242.469 58.8906C243.25 60.2969 244.25 61.4062 245.469 62.2188C246.688 63 248.188 63.3906 249.969 63.3906C252.438 63.3906 254.422 62.8594 255.922 61.7969C257.453 60.7031 258.578 59.2188 259.297 57.3438C260.047 55.4688 260.484 53.3281 260.609 50.9219V44.7812C260.516 42.8125 260.25 41.0469 259.812 39.4844C259.406 37.8906 258.781 36.5312 257.938 35.4062C257.125 34.2812 256.062 33.4219 254.75 32.8281C253.469 32.2031 251.906 31.8906 250.062 31.8906C248.312 31.8906 246.812 32.2812 245.562 33.0625C244.312 33.8438 243.297 34.9375 242.516 36.3438C241.766 37.7188 241.203 39.3281 240.828 41.1719C240.484 43.0156 240.312 45.0156 240.312 47.1719ZM313.109 60.8594V22.2812H326.609V73H313.906L313.109 60.8594ZM314.609 50.4531L318.594 50.3594C318.594 53.7344 318.203 56.875 317.422 59.7812C316.641 62.6562 315.469 65.1562 313.906 67.2812C312.344 69.375 310.375 71.0156 308 72.2031C305.625 73.3594 302.828 73.9375 299.609 73.9375C297.141 73.9375 294.859 73.5938 292.766 72.9062C290.703 72.1875 288.922 71.0781 287.422 69.5781C285.953 68.0469 284.797 66.0938 283.953 63.7188C283.141 61.3125 282.734 58.4219 282.734 55.0469V22.2812H296.234V55.1406C296.234 56.6406 296.406 57.9062 296.75 58.9375C297.125 59.9688 297.641 60.8125 298.297 61.4688C298.953 62.125 299.719 62.5938 300.594 62.875C301.5 63.1562 302.5 63.2969 303.594 63.2969C306.375 63.2969 308.562 62.7344 310.156 61.6094C311.781 60.4844 312.922 58.9531 313.578 57.0156C314.266 55.0469 314.609 52.8594 314.609 50.4531ZM364.297 61.5625V38.9688C364.297 37.3438 364.031 35.9531 363.5 34.7969C362.969 33.6094 362.141 32.6875 361.016 32.0312C359.922 31.375 358.5 31.0469 356.75 31.0469C355.25 31.0469 353.953 31.3125 352.859 31.8438C351.766 32.3438 350.922 33.0781 350.328 34.0469C349.734 34.9844 349.438 36.0938 349.438 37.375H335.938C335.938 35.2188 336.438 33.1719 337.438 31.2344C338.438 29.2969 339.891 27.5938 341.797 26.125C343.703 24.625 345.969 23.4531 348.594 22.6094C351.25 21.7656 354.219 21.3438 357.5 21.3438C361.438 21.3438 364.938 22 368 23.3125C371.062 24.625 373.469 26.5938 375.219 29.2188C377 31.8438 377.891 35.125 377.891 39.0625V60.7656C377.891 63.5469 378.062 65.8281 378.406 67.6094C378.75 69.3594 379.25 70.8906 379.906 72.2031V73H366.266C365.609 71.625 365.109 69.9062 364.766 67.8438C364.453 65.75 364.297 63.6562 364.297 61.5625ZM366.078 42.1094L366.172 49.75H358.625C356.844 49.75 355.297 49.9531 353.984 50.3594C352.672 50.7656 351.594 51.3438 350.75 52.0938C349.906 52.8125 349.281 53.6562 348.875 54.625C348.5 55.5938 348.312 56.6562 348.312 57.8125C348.312 58.9688 348.578 60.0156 349.109 60.9531C349.641 61.8594 350.406 62.5781 351.406 63.1094C352.406 63.6094 353.578 63.8594 354.922 63.8594C356.953 63.8594 358.719 63.4531 360.219 62.6406C361.719 61.8281 362.875 60.8281 363.688 59.6406C364.531 58.4531 364.969 57.3281 365 56.2656L368.562 61.9844C368.062 63.2656 367.375 64.5938 366.5 65.9688C365.656 67.3438 364.578 68.6406 363.266 69.8594C361.953 71.0469 360.375 72.0312 358.531 72.8125C356.688 73.5625 354.5 73.9375 351.969 73.9375C348.75 73.9375 345.828 73.2969 343.203 72.0156C340.609 70.7031 338.547 68.9062 337.016 66.625C335.516 64.3125 334.766 61.6875 334.766 58.75C334.766 56.0938 335.266 53.7344 336.266 51.6719C337.266 49.6094 338.734 47.875 340.672 46.4688C342.641 45.0312 345.094 43.9531 348.031 43.2344C350.969 42.4844 354.375 42.1094 358.25 42.1094H366.078ZM401.797 0.953125V73H388.297V0.953125H401.797ZM433.766 22.2812L411.734 47.4062L399.922 59.3594L395 49.6094L404.375 37.7031L417.547 22.2812H433.766ZM419.75 73L404.75 49.5625L414.078 41.4062L435.312 73H419.75ZM461.984 73.9375C458.047 73.9375 454.516 73.3125 451.391 72.0625C448.266 70.7812 445.609 69.0156 443.422 66.7656C441.266 64.5156 439.609 61.9062 438.453 58.9375C437.297 55.9375 436.719 52.75 436.719 49.375V47.5C436.719 43.6562 437.266 40.1406 438.359 36.9531C439.453 33.7656 441.016 31 443.047 28.6562C445.109 26.3125 447.609 24.5156 450.547 23.2656C453.484 21.9844 456.797 21.3438 460.484 21.3438C464.078 21.3438 467.266 21.9375 470.047 23.125C472.828 24.3125 475.156 26 477.031 28.1875C478.938 30.375 480.375 33 481.344 36.0625C482.312 39.0938 482.797 42.4688 482.797 46.1875V51.8125H442.484V42.8125H469.531V41.7812C469.531 39.9062 469.188 38.2344 468.5 36.7656C467.844 35.2656 466.844 34.0781 465.5 33.2031C464.156 32.3281 462.438 31.8906 460.344 31.8906C458.562 31.8906 457.031 32.2812 455.75 33.0625C454.469 33.8438 453.422 34.9375 452.609 36.3438C451.828 37.75 451.234 39.4062 450.828 41.3125C450.453 43.1875 450.266 45.25 450.266 47.5V49.375C450.266 51.4062 450.547 53.2812 451.109 55C451.703 56.7188 452.531 58.2031 453.594 59.4531C454.688 60.7031 456 61.6719 457.531 62.3594C459.094 63.0469 460.859 63.3906 462.828 63.3906C465.266 63.3906 467.531 62.9219 469.625 61.9844C471.75 61.0156 473.578 59.5625 475.109 57.625L481.672 64.75C480.609 66.2812 479.156 67.75 477.312 69.1562C475.5 70.5625 473.312 71.7188 470.75 72.625C468.188 73.5 465.266 73.9375 461.984 73.9375ZM560.422 62.4531V73H513.734V64L535.812 40.3281C538.031 37.8594 539.781 35.6875 541.062 33.8125C542.344 31.9062 543.266 30.2031 543.828 28.7031C544.422 27.1719 544.719 25.7188 544.719 24.3438C544.719 22.2812 544.375 20.5156 543.688 19.0469C543 17.5469 541.984 16.3906 540.641 15.5781C539.328 14.7656 537.703 14.3594 535.766 14.3594C533.703 14.3594 531.922 14.8594 530.422 15.8594C528.953 16.8594 527.828 18.25 527.047 20.0312C526.297 21.8125 525.922 23.8281 525.922 26.0781H512.375C512.375 22.0156 513.344 18.2969 515.281 14.9219C517.219 11.5156 519.953 8.8125 523.484 6.8125C527.016 4.78125 531.203 3.76562 536.047 3.76562C540.828 3.76562 544.859 4.54688 548.141 6.10938C551.453 7.64063 553.953 9.85938 555.641 12.7656C557.359 15.6406 558.219 19.0781 558.219 23.0781C558.219 25.3281 557.859 27.5312 557.141 29.6875C556.422 31.8125 555.391 33.9375 554.047 36.0625C552.734 38.1562 551.141 40.2812 549.266 42.4375C547.391 44.5938 545.312 46.8281 543.031 49.1406L531.172 62.4531H560.422ZM614.797 32.875V44.6875C614.797 49.8125 614.25 54.2344 613.156 57.9531C612.062 61.6406 610.484 64.6719 608.422 67.0469C606.391 69.3906 603.969 71.125 601.156 72.25C598.344 73.375 595.219 73.9375 591.781 73.9375C589.031 73.9375 586.469 73.5938 584.094 72.9062C581.719 72.1875 579.578 71.0781 577.672 69.5781C575.797 68.0781 574.172 66.1875 572.797 63.9062C571.453 61.5938 570.422 58.8438 569.703 55.6562C568.984 52.4688 568.625 48.8125 568.625 44.6875V32.875C568.625 27.75 569.172 23.3594 570.266 19.7031C571.391 16.0156 572.969 13 575 10.6562C577.062 8.3125 579.5 6.59375 582.312 5.5C585.125 4.375 588.25 3.8125 591.688 3.8125C594.438 3.8125 596.984 4.17188 599.328 4.89062C601.703 5.57813 603.844 6.65625 605.75 8.125C607.656 9.59375 609.281 11.4844 610.625 13.7969C611.969 16.0781 613 18.8125 613.719 22C614.438 25.1562 614.797 28.7812 614.797 32.875ZM601.25 46.4688V31.0469C601.25 28.5781 601.109 26.4219 600.828 24.5781C600.578 22.7344 600.188 21.1719 599.656 19.8906C599.125 18.5781 598.469 17.5156 597.688 16.7031C596.906 15.8906 596.016 15.2969 595.016 14.9219C594.016 14.5469 592.906 14.3594 591.688 14.3594C590.156 14.3594 588.797 14.6562 587.609 15.25C586.453 15.8438 585.469 16.7969 584.656 18.1094C583.844 19.3906 583.219 21.1094 582.781 23.2656C582.375 25.3906 582.172 27.9844 582.172 31.0469V46.4688C582.172 48.9375 582.297 51.1094 582.547 52.9844C582.828 54.8594 583.234 56.4688 583.766 57.8125C584.328 59.125 584.984 60.2031 585.734 61.0469C586.516 61.8594 587.406 62.4531 588.406 62.8281C589.438 63.2031 590.562 63.3906 591.781 63.3906C593.281 63.3906 594.609 63.0938 595.766 62.5C596.953 61.875 597.953 60.9062 598.766 59.5938C599.609 58.25 600.234 56.5 600.641 54.3438C601.047 52.1875 601.25 49.5625 601.25 46.4688Z" fill="#CCCCCC"/>
<path d="M670.672 62.4531V73H623.984V64L646.062 40.3281C648.281 37.8594 650.031 35.6875 651.312 33.8125C652.594 31.9062 653.516 30.2031 654.078 28.7031C654.672 27.1719 654.969 25.7188 654.969 24.3438C654.969 22.2812 654.625 20.5156 653.938 19.0469C653.25 17.5469 652.234 16.3906 650.891 15.5781C649.578 14.7656 647.953 14.3594 646.016 14.3594C643.953 14.3594 642.172 14.8594 640.672 15.8594C639.203 16.8594 638.078 18.25 637.297 20.0312C636.547 21.8125 636.172 23.8281 636.172 26.0781H622.625C622.625 22.0156 623.594 18.2969 625.531 14.9219C627.469 11.5156 630.203 8.8125 633.734 6.8125C637.266 4.78125 641.453 3.76562 646.297 3.76562C651.078 3.76562 655.109 4.54688 658.391 6.10938C661.703 7.64063 664.203 9.85938 665.891 12.7656C667.609 15.6406 668.469 19.0781 668.469 23.0781C668.469 25.3281 668.109 27.5312 667.391 29.6875C666.672 31.8125 665.641 33.9375 664.297 36.0625C662.984 38.1562 661.391 40.2812 659.516 42.4375C657.641 44.5938 655.562 46.8281 653.281 49.1406L641.422 62.4531H670.672ZM692.938 33.0156H700.156C702.469 33.0156 704.375 32.625 705.875 31.8438C707.375 31.0312 708.484 29.9062 709.203 28.4688C709.953 27 710.328 25.2969 710.328 23.3594C710.328 21.6094 709.984 20.0625 709.297 18.7188C708.641 17.3438 707.625 16.2812 706.25 15.5312C704.875 14.75 703.141 14.3594 701.047 14.3594C699.391 14.3594 697.859 14.6875 696.453 15.3438C695.047 16 693.922 16.9219 693.078 18.1094C692.234 19.2969 691.812 20.7344 691.812 22.4219H678.266C678.266 18.6719 679.266 15.4062 681.266 12.625C683.297 9.84375 686.016 7.67187 689.422 6.10938C692.828 4.54688 696.578 3.76562 700.672 3.76562C705.297 3.76562 709.344 4.51562 712.812 6.01562C716.281 7.48437 718.984 9.65625 720.922 12.5312C722.859 15.4062 723.828 18.9687 723.828 23.2188C723.828 25.375 723.328 27.4688 722.328 29.5C721.328 31.5 719.891 33.3125 718.016 34.9375C716.172 36.5312 713.922 37.8125 711.266 38.7812C708.609 39.7188 705.625 40.1875 702.312 40.1875H692.938V33.0156ZM692.938 43.2812V36.2969H702.312C706.031 36.2969 709.297 36.7188 712.109 37.5625C714.922 38.4062 717.281 39.625 719.188 41.2188C721.094 42.7812 722.531 44.6406 723.5 46.7969C724.469 48.9219 724.953 51.2812 724.953 53.875C724.953 57.0625 724.344 59.9062 723.125 62.4062C721.906 64.875 720.188 66.9688 717.969 68.6875C715.781 70.4062 713.219 71.7188 710.281 72.625C707.344 73.5 704.141 73.9375 700.672 73.9375C697.797 73.9375 694.969 73.5469 692.188 72.7656C689.438 71.9531 686.938 70.75 684.688 69.1562C682.469 67.5312 680.688 65.5 679.344 63.0625C678.031 60.5938 677.375 57.6719 677.375 54.2969H690.922C690.922 56.0469 691.359 57.6094 692.234 58.9844C693.109 60.3594 694.312 61.4375 695.844 62.2188C697.406 63 699.141 63.3906 701.047 63.3906C703.203 63.3906 705.047 63 706.578 62.2188C708.141 61.4062 709.328 60.2812 710.141 58.8438C710.984 57.375 711.406 55.6719 711.406 53.7344C711.406 51.2344 710.953 49.2344 710.047 47.7344C709.141 46.2031 707.844 45.0781 706.156 44.3594C704.469 43.6406 702.469 43.2812 700.156 43.2812H692.938Z" fill="#880601"/>
</svg>
